<?xml version="1.0" encoding="UTF-8"?>
<svg xmlns="http://www.w3.org/2000/svg" xmlns:xlink="http://www.w3.org/1999/xlink" width="15px" height="15px" viewBox="0 0 15 15" version="1.1">
<g id="surface1">
<path style="fill-rule:evenodd;fill:rgb(87.450981%,87.450981%,87.450981%);fill-opacity:1;stroke-width:0.00024;stroke-linecap:butt;stroke-linejoin:miter;stroke:rgb(0%,0%,0%);stroke-opacity:1;stroke-miterlimit:4;" d="M 18.16875 1 C 18.7 1 19.2125 1.2125 19.5875 1.5875 L 22.4125 4.4125 C 22.7875 4.7875 23 5.3 23 5.83125 L 23 20 C 23 21.65625 21.65625 23 20 23 L 4 23 C 2.34375 23 1 21.65625 1 20 L 1 4 C 1 2.34375 2.34375 1 4 1 Z M 4 3 C 3.45 3 3 3.45 3 4 L 3 20 C 3 20.55 3.45 21 4 21 L 5 21 L 5 15 C 5 13.34375 6.34375 12 8 12 L 16 12 C 17.65625 12 19 13.34375 19 15 L 19 21 L 20 21 C 20.55 21 21 20.55 21 20 L 21 6.83125 C 21 6.3 20.7875 5.7875 20.4125 5.4125 L 18.5875 3.5875 C 18.2125 3.2125 17.7 3 17.16875 3 L 17 3 L 17 5 C 17 6.65625 15.65625 8 14 8 L 10 8 C 8.34375 8 7 6.65625 7 5 L 7 3 Z M 17 21 L 17 15 C 17 14.45 16.55 14 16 14 L 8 14 C 7.45 14 7 14.45 7 15 L 7 21 Z M 9 3 L 15 3 L 15 5 C 15 5.55 14.55 6 14 6 L 10 6 C 9.45 6 9 5.55 9 5 Z M 9 3 " transform="matrix(0.625,0,0,0.625,0,0)"/>
</g>
</svg>
